<svg xmlns="http://www.w3.org/2000/svg" xmlns:xlink="http://www.w3.org/1999/xlink" viewBox="0 0 1079.99875 873.37246"><defs><style>
      .cls-1 {
        fill: none;
      }

      .cls-2 {
        fill: #f0e514;
      }

      .cls-3 {
        clip-path: url(#clip-path);
      }

      .cls-4 {
        fill: #1d1d1b;
      }
    </style><clipPath id="clip-path"><rect class="cls-1" y="0.00411" width="1080" height="873.36953"></rect></clipPath></defs><g id="Ebene_2" data-name="Ebene 2"><g id="Ebene_1-2" data-name="Ebene 1"><g><polygon class="cls-2" points="0 0 0 743.521 136.133 743.521 802.849 229.349 802.849 0 0 0"></polygon><g class="cls-3"><path class="cls-4" d="M294.31821,682.12759v-53.173h-42.426V570.36993H186.5841v58.58464H163.69024v53.173H186.5841v113.8075c0,54.52594,24.90271,77.43737,68.66987,77.43737,22.22033,0,38.39071-6.73521,47.8083-13.47627l-20.19393-47.14063c-3.36761,2.02056-8.7675,5.394-15.491,5.394-9.4293,0-15.48514-5.394-15.48514-22.2145V682.12759Z"></path><path class="cls-4" d="M448.48075,622.88877c-25.57626,0-45.78187,11.42644-58.57295,32.9967V570.3834H324.588V867.96848h65.3198V717.81426A46.10922,46.10922,0,0,1,392.11,703.17835c4.38078-13.35914,15.25084-19.6961,30.11517-19.6961,12.49233,0,22.01533,6.88163,25.3654,19.6961a37.67892,37.67892,0,0,1,1.56373,9.93883v154.8513h65.314v-162.26c0-.90193-.15228-1.64573-.17569-2.5301-.89022-53.43657-28.72128-80.28958-65.8118-80.28958"></path></g><polygon class="cls-4" points="552.136 628.945 552.136 703.179 552.136 867.969 617.456 867.969 617.456 703.179 617.456 628.945 552.136 628.945"></polygon><g class="cls-3"><path class="cls-4" d="M657.16512,703.17251V867.9802h65.30809V717.80842c0-23.54982,12.79108-34.33785,32.33485-34.33785,15.4793,0,26.92917,10.10866,26.92917,29.65249V867.9802h65.30814V705.70846c0-55.22873-28.27039-82.82552-65.9875-82.82552-25.57626,0-45.79358,11.43814-58.58466,32.99667V628.95048H657.16512Z"></path></g><polygon class="cls-4" points="883.383 570.373 883.383 867.982 948.703 867.982 948.703 804.671 963.497 783.136 1006.597 867.982 1079.999 867.982 1005.923 723.884 1073.263 628.946 1001.9 628.946 948.703 712.451 948.703 570.373 883.383 570.373"></polygon><g class="cls-3"><path class="cls-2" d="M579.50345,493.59908a35.7347,35.7347,0,1,0,0,71.4694c19.24511,0,35.7376-14.85262,35.7376-35.73177,0-20.885-16.49249-35.73763-35.7376-35.73763"></path><path class="cls-4" d="M579.50345,439.91183c19.24511,0,35.7376-14.85258,35.7376-35.73761,0-20.87917-16.49249-35.73175-35.7376-35.73175a35.73468,35.73468,0,1,0,0,71.46936"></path><path class="cls-4" d="M298.03077,194.7671c-19.19243,0-37.06125,10.589-47.66187,33.74634V199.40565H186.16769V434.3591H250.3689V307.292c0-41.70562,16.54517-52.28868,37.72888-52.28868,7.28574,0,12.58022,1.97955,19.20413,3.97671l5.52288-20.93775,9.687-36.63953c-7.27989-3.98256-14.5539-6.63567-24.481-6.63567"></path><path class="cls-4" d="M396.66938,293.3835c3.32661-30.41973,15.901-46.98251,34.42575-46.98251,18.53058,0,27.80175,14.55392,29.77549,46.98251Zm34.42575-99.92713c-35.27495,0-63.41643,16.46322-80.9514,44.58713-12.4045,19.8835-19.6551,45.41289-19.6551,75.856v5.968c0,74.11075,37.72891,120.449,111.86307,120.449,34.40815,0,57.57728-9.93882,72.80471-19.84837l-25.15454-50.31494A87.77,87.77,0,0,1,443.00765,384.057c-28.46359,0-42.36156-13.90378-45.67057-44.33522H525.73362V314.573c0-30.39042-5.85671-56.29465-16.99616-76.52954C493.428,210.23,467.87524,193.45637,431.09513,193.45637"></path></g></g></g></g></svg>